<svg width="32" height="32" viewBox="0 0 32 32" fill="none" xmlns="http://www.w3.org/2000/svg">
  <!-- Background -->
  <rect width="32" height="32" rx="6" fill="url(#gradient)" />
  
  <!-- Modern DDV Symbol -->
  <g fill="white">
    <!-- Abstract D shape -->
    <path d="M6 9h4c3 0 5 2 5 5s-2 5-5 5H6V9zm3 7c1.5 0 2.5-1 2.5-2.5S10.5 11 9 11H9v5z" opacity="0.9"/>
    <!-- Connecting element -->
    <circle cx="16" cy="14" r="2" opacity="0.7"/>
    <!-- V shape with modern twist -->
    <path d="M20 9l3 5 3-5h2l-4 8h-2l-4-8h2z" opacity="0.9"/>
  </g>
  
  <!-- Subtle tech pattern -->
  <circle cx="24" cy="8" r="1" fill="white" opacity="0.3"/>
  <circle cx="8" cy="24" r="1" fill="white" opacity="0.3"/>
  
  <!-- Gradient Definition -->
  <defs>
    <linearGradient id="gradient" x1="0%" y1="0%" x2="100%" y2="100%">
      <stop offset="0%" style="stop-color:#512FC9"/>
      <stop offset="50%" style="stop-color:#7C3AED"/>
      <stop offset="100%" style="stop-color:#00E0FF"/>
    </linearGradient>
  </defs>
</svg>